<svg width="32" height="32" viewBox="0 0 32 32" fill="none" xmlns="http://www.w3.org/2000/svg">
<path d="M23.0525 19.3989L23.6441 18.8112L22.2702 17.4308L21.6813 18.0185L23.0525 19.3989ZM25.6277 18.5647L28.1069 19.9126L29.0345 18.2027L26.5566 16.8561L25.6277 18.5647ZM28.5831 22.5903L26.7408 24.4234L28.1121 25.8025L29.9543 23.9707L28.5831 22.5903ZM25.6174 25.0124C23.7362 25.1889 18.8712 25.0319 13.6015 19.7933L12.2289 21.1723C17.9787 26.8897 23.4521 27.1699 25.799 26.9506L25.6174 25.0124ZM13.6015 19.7933C8.5795 14.7985 7.74662 10.5991 7.64283 8.77633L5.69943 8.8866C5.82916 11.1803 6.86054 15.8351 12.2289 21.1723L13.6015 19.7933ZM15.3853 11.7758L15.7576 11.4047L14.3877 10.0257L14.0153 10.3954L15.3853 11.7758ZM16.0534 6.68892L14.4188 4.50422L12.8607 5.67182L14.4953 7.85523L16.0534 6.68892ZM8.91681 4.0281L6.88 6.05193L8.25258 7.43229L10.2881 5.40846L8.91681 4.0281ZM14.7003 11.0856C14.0127 10.3954 14.0127 10.3954 14.0127 10.398H14.0101L14.0062 10.4032C13.9446 10.4653 13.8894 10.5336 13.8415 10.6069C13.7714 10.7107 13.6949 10.8469 13.63 11.0194C13.4721 11.4648 13.4328 11.9436 13.5159 12.4089C13.6897 13.531 14.4629 15.0139 16.4426 16.9832L17.8152 15.6029C15.9613 13.7607 15.5202 12.6398 15.4385 12.1105C15.3996 11.8588 15.4398 11.7342 15.4515 11.7057C15.4593 11.6884 15.4593 11.6858 15.4515 11.6979C15.4399 11.7158 15.4269 11.7327 15.4125 11.7485L15.3996 11.7615L15.3866 11.7732L14.7003 11.0856ZM16.4426 16.9832C18.4237 18.9526 19.9143 19.7206 21.0378 19.8919C21.6125 19.9801 22.0756 19.91 22.4272 19.779C22.6242 19.707 22.8082 19.6036 22.9721 19.4728L23.037 19.4144L23.046 19.4067L23.0499 19.4028L23.0512 19.4002C23.0512 19.4002 23.0525 19.3989 22.3662 18.7087C21.6787 18.0185 21.6826 18.0172 21.6826 18.0172L21.6851 18.0146L21.6877 18.012L21.6955 18.0055L21.7085 17.9926L21.7578 17.9537C21.7699 17.9459 21.7669 17.9467 21.7487 17.9562C21.7163 17.9679 21.5891 18.0081 21.3336 17.9692C20.7965 17.8862 19.6678 17.4451 17.8152 15.6029L16.4426 16.9832ZM14.4188 4.50292C13.0955 2.73855 10.4957 2.45833 8.91681 4.0281L10.2881 5.40846C10.9783 4.72217 12.203 4.79352 12.8607 5.67182L14.4188 4.50292ZM7.64413 8.77763C7.61818 8.32875 7.82446 7.85912 8.25258 7.43359L6.8787 6.05323C6.18204 6.74601 5.63327 7.72679 5.69943 8.8866L7.64413 8.77763ZM26.7408 24.4234C26.3854 24.7789 26.0014 24.9787 25.6187 25.0137L25.799 26.9506C26.7525 26.8611 27.5322 26.3811 28.1134 25.8038L26.7408 24.4234ZM15.7576 11.4047C17.0355 10.1346 17.1302 8.12766 16.0547 6.69022L14.4966 7.85652C15.0195 8.55578 14.9416 9.473 14.3864 10.027L15.7576 11.4047ZM28.1082 19.9139C29.1681 20.4899 29.3329 21.8469 28.5844 22.5916L29.9569 23.9707C31.6954 22.2413 31.1596 19.3574 29.0358 18.204L28.1082 19.9139ZM23.6441 18.8125C24.1423 18.3169 24.944 18.195 25.629 18.566L26.5579 16.8574C25.1516 16.092 23.408 16.3034 22.2715 17.4321L23.6441 18.8125Z" fill="#226777"/>
</svg>
